<?xml version="1.0" encoding="UTF-8" standalone="no"?>
<svg width="172px" height="118px" viewBox="0 0 172 118" version="1.1" xmlns="http://www.w3.org/2000/svg" xmlns:xlink="http://www.w3.org/1999/xlink">
    <!-- Generator: Sketch 43 (38999) - http://www.bohemiancoding.com/sketch -->
    <title>Tag Icon</title>
    <desc>Created with Sketch.</desc>
    <defs></defs>
    <g id="Page-1" stroke="none" stroke-width="1" fill="none" fill-rule="evenodd">
        <g id="Desktop-HD" transform="translate(-1094.000000, -1307.000000)">
            <g id="How" transform="translate(-6.000000, 1068.000000)">
                <g id="Choose-a-hash-tag-Copy-3" transform="translate(1057.000000, 240.000000)">
                    <g id="Tag-Icon" transform="translate(44.000000, 0.000000)">
                        <polygon id="Star" fill="#F8F9FE" points="84.9909113 95.6491228 52.2160057 112.838419 58.4754557 76.4309054 31.96 50.6469611 68.6034585 45.3351765 84.9909113 12.2105263 101.378364 45.3351765 138.021823 50.6469611 111.506367 76.4309054 117.765817 112.838419"></polygon>
                        <path d="M57.46,41.7192982 L105.06,77.6725146" id="Line" stroke="#8097E8" stroke-linecap="round" stroke-dasharray="1,1,1"></path>
                        <path d="M29.24,69.871345 L100.98,85.1345029" id="Line-Copy-8" stroke="#8097E8" stroke-linecap="round" stroke-dasharray="1,1,1"></path>
                        <path d="M123.762656,42.3976608 L123.762656,73.6023392" id="Line-Copy-4" stroke="#8097E8" stroke-linecap="round" stroke-dasharray="1,1,1"></path>
                        <path d="M145.18,75.6374269 L128.86,81.7426901" id="Line-Copy-6" stroke="#8097E8" stroke-linecap="round" stroke-dasharray="1,1,1"></path>
                        <path d="M95.54,28.1520468 L114.58,72.9239766" id="Line-Copy-7" stroke="#8097E8" stroke-linecap="round" stroke-dasharray="1,1,1"></path>
                        <path d="M103.7,94.6315789 L65.62,102.77193" id="Line-Copy-5" stroke="#8097E8" stroke-linecap="round" stroke-dasharray="1,1,1"></path>
                        <g id="User" transform="translate(29.240000, 18.994152)" stroke="#95A8EC">
                            <ellipse id="Oval-4-Copy" cx="14.62" cy="14.5847953" rx="14.62" ry="14.5847953"></ellipse>
                            <path d="M14.62,13.5672515 C11.9911246,13.5672515 9.86,11.4412586 9.86,8.81871345 C9.86,6.19616832 11.9911246,4.07017544 14.62,4.07017544 C17.2488754,4.07017544 19.38,6.19616832 19.38,8.81871345 C19.38,11.4412586 17.2488754,13.5672515 14.62,13.5672515 Z M14.62,24.5344605 C10.6766869,24.5344605 7.48,24.8711017 7.48,20.937284 C7.48,17.0034663 10.6766869,13.814477 14.62,13.814477 C18.5633131,13.814477 21.76,17.0034663 21.76,20.937284 C21.76,24.8711017 18.5633131,24.5344605 14.62,24.5344605 Z" id="Combined-Shape"></path>
                        </g>
                        <g id="User-Copy-5" transform="translate(0.000000, 53.590643)" stroke="#95A8EC">
                            <ellipse id="Oval-4-Copy" cx="14.62" cy="14.5847953" rx="14.62" ry="14.5847953"></ellipse>
                            <path d="M14.62,13.5672515 C11.9911246,13.5672515 9.86,11.4412586 9.86,8.81871345 C9.86,6.19616832 11.9911246,4.07017544 14.62,4.07017544 C17.2488754,4.07017544 19.38,6.19616832 19.38,8.81871345 C19.38,11.4412586 17.2488754,13.5672515 14.62,13.5672515 Z M14.62,24.5344605 C10.6766869,24.5344605 7.48,24.8711017 7.48,20.937284 C7.48,17.0034663 10.6766869,13.814477 14.62,13.814477 C18.5633131,13.814477 21.76,17.0034663 21.76,20.937284 C21.76,24.8711017 18.5633131,24.5344605 14.62,24.5344605 Z" id="Combined-Shape"></path>
                        </g>
                        <g id="User-Copy" transform="translate(111.520000, 12.210526)" stroke="#95A8EC">
                            <ellipse id="Oval-4-Copy" cx="14.62" cy="14.5847953" rx="14.62" ry="14.5847953"></ellipse>
                            <path d="M14.62,13.5672515 C11.9911246,13.5672515 9.86,11.4412586 9.86,8.81871345 C9.86,6.19616832 11.9911246,4.07017544 14.62,4.07017544 C17.2488754,4.07017544 19.38,6.19616832 19.38,8.81871345 C19.38,11.4412586 17.2488754,13.5672515 14.62,13.5672515 Z M14.62,24.5344605 C10.6766869,24.5344605 7.48,24.8711017 7.48,20.937284 C7.48,17.0034663 10.6766869,13.814477 14.62,13.814477 C18.5633131,13.814477 21.76,17.0034663 21.76,20.937284 C21.76,24.8711017 18.5633131,24.5344605 14.62,24.5344605 Z" id="Combined-Shape"></path>
                        </g>
                        <g id="User-Copy-6" transform="translate(140.760000, 50.877193)" stroke="#95A8EC">
                            <ellipse id="Oval-4-Copy" cx="14.62" cy="14.5847953" rx="14.62" ry="14.5847953"></ellipse>
                            <path d="M14.62,13.5672515 C11.9911246,13.5672515 9.86,11.4412586 9.86,8.81871345 C9.86,6.19616832 11.9911246,4.07017544 14.62,4.07017544 C17.2488754,4.07017544 19.38,6.19616832 19.38,8.81871345 C19.38,11.4412586 17.2488754,13.5672515 14.62,13.5672515 Z M14.62,24.5344605 C10.6766869,24.5344605 7.48,24.8711017 7.48,20.937284 C7.48,17.0034663 10.6766869,13.814477 14.62,13.814477 C18.5633131,13.814477 21.76,17.0034663 21.76,20.937284 C21.76,24.8711017 18.5633131,24.5344605 14.62,24.5344605 Z" id="Combined-Shape"></path>
                        </g>
                        <g id="User-Copy-2" transform="translate(36.040000, 86.830409)" stroke="#95A8EC">
                            <ellipse id="Oval-4-Copy" cx="14.62" cy="14.5847953" rx="14.62" ry="14.5847953"></ellipse>
                            <path d="M14.62,13.5672515 C11.9911246,13.5672515 9.86,11.4412586 9.86,8.81871345 C9.86,6.19616832 11.9911246,4.07017544 14.62,4.07017544 C17.2488754,4.07017544 19.38,6.19616832 19.38,8.81871345 C19.38,11.4412586 17.2488754,13.5672515 14.62,13.5672515 Z M14.62,24.5344605 C10.6766869,24.5344605 7.48,24.8711017 7.48,20.937284 C7.48,17.0034663 10.6766869,13.814477 14.62,13.814477 C18.5633131,13.814477 21.76,17.0034663 21.76,20.937284 C21.76,24.8711017 18.5633131,24.5344605 14.62,24.5344605 Z" id="Combined-Shape"></path>
                        </g>
                        <g id="User-Copy-4" transform="translate(101.660000, 72.584795)" stroke="#95A8EC" fill="#F1F3FD">
                            <path d="M14.62,29.1695906 C6.54559696,29.1695906 0,22.6397554 0,14.5847953 C0,6.52983529 6.54559696,0 14.62,0 C22.694403,0 29.24,6.52983529 29.24,14.5847953 C29.24,22.6397554 22.694403,29.1695906 14.62,29.1695906 Z M14.62,13.5672515 C17.2488754,13.5672515 19.38,11.4412586 19.38,8.81871345 C19.38,6.19616832 17.2488754,4.07017544 14.62,4.07017544 C11.9911246,4.07017544 9.86,6.19616832 9.86,8.81871345 C9.86,11.4412586 11.9911246,13.5672515 14.62,13.5672515 Z M14.62,24.5344605 C18.5633131,24.5344605 21.76,24.8711017 21.76,20.937284 C21.76,17.0034663 18.5633131,13.814477 14.62,13.814477 C10.6766869,13.814477 7.48,17.0034663 7.48,20.937284 C7.48,24.8711017 10.6766869,24.5344605 14.62,24.5344605 Z" id="Combined-Shape"></path>
                        </g>
                        <g id="User-Copy-3" transform="translate(72.080000, 0.000000)" stroke="#95A8EC">
                            <ellipse id="Oval-4-Copy" cx="14.62" cy="14.5847953" rx="14.62" ry="14.5847953"></ellipse>
                            <path d="M14.62,13.5672515 C11.9911246,13.5672515 9.86,11.4412586 9.86,8.81871345 C9.86,6.19616832 11.9911246,4.07017544 14.62,4.07017544 C17.2488754,4.07017544 19.38,6.19616832 19.38,8.81871345 C19.38,11.4412586 17.2488754,13.5672515 14.62,13.5672515 Z M14.62,24.5344605 C10.6766869,24.5344605 7.48,24.8711017 7.48,20.937284 C7.48,17.0034663 10.6766869,13.814477 14.62,13.814477 C18.5633131,13.814477 21.76,17.0034663 21.76,20.937284 C21.76,24.8711017 18.5633131,24.5344605 14.62,24.5344605 Z" id="Combined-Shape"></path>
                        </g>
                        <ellipse id="Oval-7" stroke="#7A92E7" cx="81.6" cy="41.380117" rx="3.4" ry="3.39181287"></ellipse>
                        <path d="M54.3295837,69.5114985 L51.3367697,66.5258912 L51.177569,66.3670738 L50.8591674,66.6847086 L51.0183682,66.8435261 L54.0111821,69.8291334 L51.2393442,72.5942968 L51.0801434,72.7531142 L51.398545,73.0707491 L51.5577458,72.9119316 L54.3295837,70.1467682 L57.1014216,72.9119316 L57.2606224,73.0707491 L57.579024,72.7531142 L57.4198232,72.5942968 L54.6479853,69.8291334 L57.6407992,66.8435261 L57.8,66.6847086 L57.4815984,66.3670738 L57.3223976,66.5258912 L54.3295837,69.5114985 Z" id="Combined-Shape" fill="#A0B1EE"></path>
                        <path d="M32.5695837,55.944247 L29.5767697,52.9586397 L29.417569,52.7998223 L29.0991674,53.1174572 L29.2583682,53.2762746 L32.2511821,56.2618819 L29.4793442,59.0270453 L29.3201434,59.1858628 L29.638545,59.5034976 L29.7977458,59.3446802 L32.5695837,56.5795168 L35.3414216,59.3446802 L35.5006224,59.5034976 L35.819024,59.1858628 L35.6598232,59.0270453 L32.8879853,56.2618819 L35.8807992,53.2762746 L36.04,53.1174572 L35.7215984,52.7998223 L35.5623976,52.9586397 L32.5695837,55.944247 Z" id="Combined-Shape-Copy-3" fill="#A0B1EE"></path>
                    </g>
                </g>
            </g>
        </g>
    </g>
</svg>