<?xml version="1.0" encoding="UTF-8" standalone="no"?>
<svg width="131px" height="107px" viewBox="0 0 131 107" version="1.1" xmlns="http://www.w3.org/2000/svg" xmlns:xlink="http://www.w3.org/1999/xlink">
    <!-- Generator: Sketch 43 (38999) - http://www.bohemiancoding.com/sketch -->
    <title>Tag Icon</title>
    <desc>Created with Sketch.</desc>
    <defs>
        <path d="M46.6271186,44.0173718 C46.6271186,30.7606679 57.3772523,20.013986 70.6356823,20.013986 L106.991436,20.013986 C120.251,20.013986 131,30.7592951 131,44.0173718 L131,80.5140968 C131,93.7708007 120.249866,104.517483 106.991436,104.517483 L70.6356823,104.517483 C57.3761187,104.517483 46.6271186,93.7721735 46.6271186,80.5140968 L46.6271186,44.0173718 Z M56.2485876,43.6439862 L56.2485876,80.8874823 C56.2485876,88.6117226 62.5130202,94.8811189 70.2405894,94.8811189 L107.386529,94.8811189 C115.104038,94.8811189 121.378531,88.6159544 121.378531,80.8874823 L121.378531,43.6439862 C121.378531,35.9197459 115.114098,29.6503497 107.386529,29.6503497 L70.2405894,29.6503497 C62.5230808,29.6503497 56.2485876,35.9155141 56.2485876,43.6439862 Z" id="path-1"></path>
        <path d="M70.3107345,62.608675 C70.3107345,52.1846266 78.7581195,43.7342657 89.1836158,43.7342657 C99.6068204,43.7342657 108.056497,52.1829671 108.056497,62.608675 L108.056497,62.6640522 C108.056497,73.0881007 99.6091122,81.5384615 89.1836158,81.5384615 C78.7604113,81.5384615 70.3107345,73.0897602 70.3107345,62.6640522 L70.3107345,62.608675 Z M78.3838091,62.6205191 L78.3838091,62.6522082 C78.3838091,68.6249362 83.2190473,73.4528892 89.1836158,73.4528892 C95.1494958,73.4528892 99.9834225,68.6172596 99.9834225,62.6522082 L99.9834225,62.6205191 C99.9834225,56.6477911 95.1481844,51.8198381 89.1836158,51.8198381 C83.2177358,51.8198381 78.3838091,56.6554677 78.3838091,62.6205191 Z" id="path-2"></path>
        <path d="M106.206215,41.8811189 C106.206215,38.6060317 108.863748,35.951049 112.127119,35.951049 C115.397144,35.951049 118.048023,38.5979339 118.048023,41.8811189 C118.048023,45.1562061 115.39049,47.8111888 112.127119,47.8111888 C108.857094,47.8111888 106.206215,45.1643038 106.206215,41.8811189 Z M110.803088,41.8811189 C110.803088,42.6185989 111.395877,43.2071994 112.127119,43.2071994 C112.863459,43.2071994 113.451149,42.6134929 113.451149,41.8811189 C113.451149,41.1436389 112.858361,40.5550384 112.127119,40.5550384 C111.390779,40.5550384 110.803088,41.1487448 110.803088,41.8811189 Z" id="path-3"></path>
    </defs>
    <g id="Page-1" stroke="none" stroke-width="1" fill="none" fill-rule="evenodd">
        <g id="Desktop-HD" transform="translate(-189.000000, -1305.000000)">
            <g id="How" transform="translate(-6.000000, 1068.000000)">
                <g id="Add-IG-Account" transform="translate(127.000000, 238.000000)">
                    <g id="Tag-Icon" transform="translate(68.000000, 0.000000)">
                        <path d="M46.0980535,95.7555726 C64.4274144,69.6956949 113.237288,91.7306086 113.237288,60.4125874 C113.237288,29.0945662 123.078318,2.46700175 91.8087041,2.46700175 C60.5390904,2.46700175 0,29.0945662 0,60.4125874 C0,91.7306086 27.7686926,121.81545 46.0980535,95.7555726 Z" id="Oval-4" fill-opacity="0.0500000007" fill="#778FE6"></path>
                        <g id="Combined-Shape">
                            <use fill="#F1F3FD" fill-rule="evenodd" xlink:href="#path-1"></use>
                            <path stroke="#8A9FEA" stroke-width="1" d="M47.1271186,44.0173718 C47.1271186,31.0372294 57.6529754,20.513986 70.6356823,20.513986 L106.991436,20.513986 C119.97536,20.513986 130.5,31.0359401 130.5,44.0173718 L130.5,80.5140968 C130.5,93.4942391 119.974143,104.017483 106.991436,104.017483 L70.6356823,104.017483 C57.6517583,104.017483 47.1271186,93.4955284 47.1271186,80.5140968 L47.1271186,44.0173718 Z M55.7485876,43.6439862 L55.7485876,80.8874823 C55.7485876,88.8892901 62.2383024,95.3811189 70.2405894,95.3811189 L107.386529,95.3811189 C115.383612,95.3811189 121.878531,88.8886659 121.878531,80.8874823 L121.878531,43.6439862 C121.878531,35.6421785 115.388816,29.1503497 107.386529,29.1503497 L70.2405894,29.1503497 C62.2435063,29.1503497 55.7485876,35.6428026 55.7485876,43.6439862 Z"></path>
                        </g>
                        <g id="Combined-Shape-Copy-5">
                            <use fill="#F1F3FD" fill-rule="evenodd" xlink:href="#path-2"></use>
                            <path stroke="#8A9FEA" stroke-width="1" d="M70.8107345,62.608675 C70.8107345,52.4599589 79.0350718,44.2342657 89.1836158,44.2342657 C99.3312489,44.2342657 107.556497,52.4596804 107.556497,62.608675 L107.556497,62.6640522 C107.556497,72.8127684 99.3321598,81.0384615 89.1836158,81.0384615 C79.0359828,81.0384615 70.8107345,72.8130469 70.8107345,62.6640522 L70.8107345,62.608675 Z M77.8838091,62.6205191 L77.8838091,62.6522082 C77.8838091,68.8984732 82.9402984,73.9528892 89.1836158,73.9528892 C95.4252037,73.9528892 100.483423,68.8938365 100.483423,62.6522082 L100.483423,62.6205191 C100.483423,56.3742541 95.4269332,51.3198381 89.1836158,51.3198381 C82.9420279,51.3198381 77.8838091,56.3788907 77.8838091,62.6205191 Z"></path>
                        </g>
                        <g id="Combined-Shape-Copy-6">
                            <use fill="#F1F3FD" fill-rule="evenodd" xlink:href="#path-3"></use>
                            <path stroke="#8A9FEA" stroke-width="1" d="M106.706215,41.8811189 C106.706215,38.8843876 109.137678,36.451049 112.127119,36.451049 C115.123729,36.451049 117.548023,38.8768055 117.548023,41.8811189 C117.548023,44.8778501 115.116559,47.3111888 112.127119,47.3111888 C109.130509,47.3111888 106.706215,44.8854322 106.706215,41.8811189 Z M110.303088,41.8811189 C110.303088,42.8931028 111.118094,43.7071994 112.127119,43.7071994 C113.138313,43.7071994 113.951149,42.8909333 113.951149,41.8811189 C113.951149,40.8691349 113.136144,40.0550384 112.127119,40.0550384 C111.115925,40.0550384 110.303088,40.8713044 110.303088,41.8811189 Z"></path>
                        </g>
                        <ellipse id="Oval-6" stroke="#95A8EC" cx="16.2824859" cy="31.1328671" rx="5.18079096" ry="5.18881119"></ellipse>
                        <ellipse id="Oval-7" stroke="#7A92E7" cx="39.9661017" cy="3.70629371" rx="3.70056497" ry="3.70629371"></ellipse>
                        <path d="M27.1872843,69.9059283 L24.0501565,66.763944 L23.8768821,66.5904014 L23.5303334,66.9374867 L23.7036078,67.1110293 L26.8407355,70.2530135 L23.7036078,73.3949978 L23.5303334,73.5685404 L23.8768821,73.9156256 L24.0501565,73.742083 L27.1872843,70.6000987 L30.3244121,73.742083 L30.4976864,73.9156256 L30.8442352,73.5685404 L30.6709608,73.3949978 L27.533833,70.2530135 L30.6709608,67.1110293 L30.8442352,66.9374867 L30.4976864,66.5904014 L30.3244121,66.763944 L27.1872843,69.9059283 Z" id="Combined-Shape" fill="#A0B1EE"></path>
                    </g>
                </g>
            </g>
        </g>
    </g>
</svg>