<?xml version="1.0" encoding="UTF-8" standalone="no"?>
<svg width="130px" height="100px" viewBox="0 0 130 100" version="1.1" xmlns="http://www.w3.org/2000/svg" xmlns:xlink="http://www.w3.org/1999/xlink">
    <!-- Generator: Sketch 43 (38999) - http://www.bohemiancoding.com/sketch -->
    <title>Tag Icon</title>
    <desc>Created with Sketch.</desc>
    <defs></defs>
    <g id="Page-1" stroke="none" stroke-width="1" fill="none" fill-rule="evenodd">
        <g id="Desktop-HD" transform="translate(-810.000000, -1317.000000)">
            <g id="How" transform="translate(-6.000000, 1068.000000)">
                <g id="Smart-Bots" transform="translate(747.000000, 249.000000)">
                    <g id="Tag-Icon" transform="translate(69.000000, 0.000000)">
                        <polygon id="Polygon" fill="#F8F9FE" points="82.1126761 0 129.558341 34.5491503 111.435709 90.4508497 52.7896428 90.4508497 34.6670115 34.5491503"></polygon>
                        <path d="M74.8056418,54.9434741 C86.0041863,57.0125424 93.5774648,60.9743978 93.5774648,65.5218952 C93.5774648,72.2077141 77.2074818,99.1920613 57.0140845,99.1920613 C36.8206872,99.1920613 20.4507042,72.2077141 20.4507042,65.5218952 C20.4507042,61.0434103 27.7958636,57.1329271 38.7152003,55.0389775 C39.8051823,55.9284828 41.764341,56.5217391 44,56.5217391 C47.2811677,56.5217391 49.9667536,55.2438649 50.1831178,53.6270522 C50.1878059,53.6267589 50.1924943,53.6264659 50.1971831,53.6261731 L50.1971831,52.3602905 L49.7528745,52.2592113 C48.8373596,51.1170232 46.6066151,50.310559 44,50.310559 C43.28195,50.310559 42.5924229,50.3717575 41.9510553,50.484314 L20.9078388,45.697027 C15.5214558,44.4716363 11.1549296,39.0066669 11.1549296,33.4792194 L11.1549296,17.4524576 C11.1549296,11.9301395 15.2606577,5.69467585 20.5686878,4.18155748 C20.5686878,4.18155748 21.4553257,0.841906056 56.7042254,0.841906056 C94.8290053,2.55240683 92.7087848,4.56407225 92.7087848,4.56407225 C97.9801971,6.15981282 102.253521,11.9250101 102.253521,17.4524576 L102.253521,33.4792194 C102.253521,39.0015375 97.8664136,44.3651227 92.4485798,45.4603477 L68.1266622,50.3770678 C67.4055987,50.4530612 66.7306906,50.5918724 66.1257918,50.7815475 L63.2112676,51.3707239 L63.2112676,53.5893157 C63.2144446,53.5894953 63.2176215,53.589675 63.2207982,53.5898549 C63.4006068,55.2242215 66.1021602,56.5217391 69.4084507,56.5217391 C71.7232008,56.5217391 73.7415409,55.885765 74.8056418,54.9434741 Z M63.2112676,46.9422737 L91.5984812,38.418456 C93.7155648,37.7827602 95.4329527,35.4748549 95.4329527,33.2640322 L95.4329527,18.2887628 C95.4329527,16.0699006 93.6432675,14.2857143 91.435579,14.2857143 L20.7297681,14.2857143 C18.5240345,14.2857143 16.7323944,16.0779402 16.7323944,18.2887628 L16.7323944,33.2640322 C16.7323944,35.4828945 18.4715068,37.6931054 20.6168106,38.2186333 L50.1971831,45.4648394 L50.1971831,42.2360248 L63.2112676,42.2360248 L63.2112676,46.9422737 Z M37.8028169,31.6770186 C34.3802072,31.6770186 31.6056338,28.8961786 31.6056338,25.4658385 C31.6056338,22.0354984 34.3802072,19.2546584 37.8028169,19.2546584 C41.2254266,19.2546584 44,22.0354984 44,25.4658385 C44,28.8961786 41.2254266,31.6770186 37.8028169,31.6770186 Z M74.3661972,31.6770186 C70.9435875,31.6770186 68.1690141,28.8961786 68.1690141,25.4658385 C68.1690141,22.0354984 70.9435875,19.2546584 74.3661972,19.2546584 C77.7888069,19.2546584 80.5633803,22.0354984 80.5633803,25.4658385 C80.5633803,28.8961786 77.7888069,31.6770186 74.3661972,31.6770186 Z M57.943662,94.8527158 C64.6177509,94.8527158 70.028169,90.7879994 70.028169,85.7739175 C70.028169,80.7598356 64.6177509,76.6951192 57.943662,76.6951192 C51.269573,76.6951192 45.8591549,80.7598356 45.8591549,85.7739175 C45.8591549,90.7879994 51.269573,94.8527158 57.943662,94.8527158 Z" id="Combined-Shape" stroke="#7890E7" fill="#F1F3FD"></path>
                        <ellipse id="Combined-Shape" stroke="#849AE9" cx="112.788732" cy="36.0248447" rx="3.09859155" ry="3.10559006"></ellipse>
                        <polygon id="Polygon-2" stroke="#7A92E7" points="101.943662 52.7950311 106.953453 56.443078 105.039883 62.3457419 98.8474411 62.3457419 96.9338713 56.443078"></polygon>
                        <polygon id="Polygon-2-Copy" stroke="#7A92E7" transform="translate(18.901408, 84.239130) scale(1, -1) translate(-18.901408, -84.239130) " points="18.9014085 82.1428571 21.3165215 86.3354037 16.4862954 86.3354037"></polygon>
                        <path d="M7.12845518,59.498416 L3.00953052,55.3701883 L2.79042701,55.1505899 L2.35221999,55.5897867 L2.5713235,55.809385 L6.69024816,59.9376127 L2.37436397,64.2632448 L2.15526046,64.4828432 L2.59346748,64.92204 L2.81257099,64.7024416 L7.12845518,60.3768095 L11.4443394,64.7024416 L11.6634429,64.92204 L12.1016499,64.4828432 L11.8825464,64.2632448 L7.5666622,59.9376127 L11.6855869,55.809385 L11.9046904,55.5897867 L11.4664833,55.1505899 L11.2473798,55.3701883 L7.12845518,59.498416 Z" id="Combined-Shape" fill="#98ABED" transform="translate(7.128455, 60.036315) rotate(62.000000) translate(-7.128455, -60.036315) "></path>
                    </g>
                </g>
            </g>
        </g>
    </g>
</svg>