<?xml version="1.0" encoding="UTF-8" standalone="no"?>
<svg width="116px" height="113px" viewBox="0 0 116 113" version="1.1" xmlns="http://www.w3.org/2000/svg" xmlns:xlink="http://www.w3.org/1999/xlink">
    <!-- Generator: Sketch 43 (38999) - http://www.bohemiancoding.com/sketch -->
    <title>Tag Icon</title>
    <desc>Created with Sketch.</desc>
    <defs>
        <path d="M8.19911897,22.0094295 C8.19911897,19.2426085 10.4457554,16.9996569 13.1951582,16.9996569 L47.8896132,16.9996569 C50.6488495,16.9996569 54.821205,18.1322983 57.1669065,19.5729435 C57.1669065,19.5729435 78.6372142,31.4429882 78.6372142,41.3700112 C78.6372142,51.2970341 57.1669065,63.1670789 57.1669065,63.1670789 C54.8024352,64.5882658 50.6390161,65.7403654 47.8896132,65.7403654 L13.1951582,65.7403654 C10.4359219,65.7403654 8.19911897,63.5033646 8.19911897,60.7305929 L8.19911897,22.0094295 Z M56.930851,47.1404729 C60.1408381,47.1404729 62.7430467,44.5569492 62.7430467,41.3700112 C62.7430467,38.1830732 60.1408381,35.5995494 56.930851,35.5995494 C53.720864,35.5995494 51.1186554,38.1830732 51.1186554,41.3700112 C51.1186554,44.5569492 53.720864,47.1404729 56.930851,47.1404729 Z" id="path-1"></path>
        <path d="M2.1053646,48.919683 C1.16711155,50.5735932 1.21567824,52.699731 2.40939583,54.3427423 L25.1691246,85.6688215 C26.798919,87.912041 29.9234067,88.4070529 32.1556757,86.7852145 L60.2240794,66.3923255 C62.448393,64.776267 65.1394827,61.3970025 66.2170275,58.8574367 C66.2170275,58.8574367 71.1892995,48.2251988 72.3243606,39.011409 C70.6222141,47.2519491 66.7850766,55.4569222 66.7850766,55.4569222 C65.7075319,57.9964879 63.0164422,61.3757525 60.7921286,62.9918109 L32.7237249,83.3846999 C30.4914558,85.0065383 27.3669681,84.5115265 25.7371738,82.268307 L2.97744499,50.9422277 C2.52539588,50.3200355 2.23756856,49.62856 2.1053646,48.919683 Z" id="path-2"></path>
    </defs>
    <g id="Page-1" stroke="none" stroke-width="1" fill="none" fill-rule="evenodd">
        <g id="Desktop-HD" transform="translate(-500.000000, -1306.000000)">
            <g id="How" transform="translate(-6.000000, 1068.000000)">
                <g id="Target-Hashtags" transform="translate(437.000000, 239.000000)">
                    <g id="Tag-Icon" transform="translate(69.000000, 0.000000)">
                        <ellipse id="Oval-4" fill-opacity="0.0500000007" fill="#778FE6" cx="52.8968254" cy="55.5" rx="52.2142857" ry="52.095092"></ellipse>
                        <ellipse id="Oval-4-Copy" stroke="#95A8EC" cx="15.3571429" cy="28.2607362" rx="14.6746032" ry="14.6411043"></ellipse>
                        <g id="tag" transform="translate(42.317460, 7.852761)">
                            <g id="Combined-Shape-Copy-4" transform="translate(43.418167, 41.370011) rotate(-36.000000) translate(-43.418167, -41.370011) ">
                                <use fill="#F1F3FD" fill-rule="evenodd" xlink:href="#path-1"></use>
                                <path stroke="#6F89E5" stroke-width="1" d="M8.69911897,22.0094295 C8.69911897,19.5219967 10.7186569,17.4996569 13.1951582,17.4996569 L47.8896132,17.4996569 C50.5884433,17.4996569 54.6643558,18.6227374 56.9052351,19.9990046 C57.0891878,20.1013019 57.400093,20.2779801 57.8367026,20.5337829 C58.5660714,20.9611087 59.3792261,21.4540495 60.2551479,22.005809 C62.7576606,23.5821886 65.2600016,25.3127245 67.5935574,27.142323 C72.0917071,30.6690473 75.4068512,34.1279568 77.0366247,37.3307121 C77.763152,38.7584499 78.1372142,40.1083017 78.1372142,41.3700112 C78.1372142,42.6317207 77.763152,43.9815724 77.0366247,45.4093103 C75.4068512,48.6120655 72.0917071,52.0709751 67.5935574,55.5976994 C65.2600016,57.4272978 62.7576606,59.1578338 60.2551479,60.7342134 C59.3792261,61.2859729 58.5660714,61.7789137 57.8367026,62.2062395 C57.400093,62.4620422 57.0891878,62.6387205 56.9249874,62.7295002 C54.6255765,64.1112005 50.5516953,65.2403654 47.8896132,65.2403654 L13.1951582,65.2403654 C10.7102286,65.2403654 8.69911897,63.2253822 8.69911897,60.7305929 L8.69911897,22.0094295 Z M56.930851,47.6404729 C60.4161771,47.6404729 63.2430467,44.8339014 63.2430467,41.3700112 C63.2430467,37.906121 60.4161771,35.0995494 56.930851,35.0995494 C53.445525,35.0995494 50.6186554,37.906121 50.6186554,41.3700112 C50.6186554,44.8339014 53.445525,47.6404729 56.930851,47.6404729 Z"></path>
                            </g>
                            <g>
                                <use fill="#F1F3FD" fill-rule="evenodd" xlink:href="#path-2"></use>
                                <path stroke="#6F89E5" stroke-width="1" d="M67.2419071,55.6603428 C67.243059,55.6576346 67.2442091,55.6549272 67.2453575,55.6522206 L67.2380328,55.6686547 C67.2380773,55.6685596 67.2380773,55.6685596 67.2381126,55.6684841 C67.2382384,55.6682149 67.2382384,55.6682149 67.2383996,55.6678698 C67.2387939,55.6670252 67.2387939,55.6670252 67.2393795,55.6657697 C67.2405282,55.6633055 67.2407713,55.662784 67.2419071,55.6603428 Z M66.2618157,57.5313424 C66.1826173,57.713436 66.1060732,57.8874393 66.0324321,58.0530112 C65.9038061,58.3422087 65.8123009,58.5425744 65.7641084,58.6456246 C64.7159891,61.1150035 62.0838564,64.4230844 59.9301868,65.987817 L31.8617831,86.380706 C29.8514328,87.8413109 27.0400335,87.3932558 25.5736331,85.3749289 L2.81390433,54.0488497 C2.03018374,52.9701508 1.78160665,51.6324195 2.0657128,50.3887089 C2.20792543,50.6832931 2.37726288,50.9667988 2.57293649,51.2361204 L25.3326653,82.5621996 C27.1234376,85.0269862 30.5601106,85.5746917 33.0176175,83.7892084 L61.0860212,63.3963194 C62.8651439,62.1037111 64.9114735,59.7456661 66.2618157,57.5313424 Z"></path>
                            </g>
                        </g>
                        <ellipse id="Oval-4-Copy-2" stroke="#95A8EC" cx="15.3571429" cy="96.3588957" rx="14.6746032" ry="14.6411043"></ellipse>
                        <polyline id="Path-3-Copy" stroke="#8198E8" points="8.19047619 96.7849687 12.719638 101.303791 22.1123557 91.9325153"></polyline>
                        <path d="M12.6269841,45.9662577 L12.6269841,76.7194098" id="Line" stroke="#8097E8" stroke-linecap="round" stroke-dasharray="1,1,1"></path>
                        <ellipse id="Oval-7" stroke="#7A92E7" cx="37.5396825" cy="3.40490798" rx="3.41269841" ry="3.40490798"></ellipse>
                        <path d="M15.5396862,27.8023619 L9.72052204,21.9964816 L9.4109754,21.6876416 L8.79188212,22.3053216 L9.10142876,22.6141617 L14.9205929,28.4200419 L9.53108983,33.7972419 L9.22154319,34.1060819 L9.84063647,34.723762 L10.1501831,34.4149219 L15.5396862,29.0377219 L20.9291892,34.4149219 L21.2387359,34.723762 L21.8578291,34.1060819 L21.5482825,33.7972419 L16.1587794,28.4200419 L21.9779436,22.6141617 L22.2874902,22.3053216 L21.6683969,21.6876416 L21.3588503,21.9964816 L15.5396862,27.8023619 Z" id="Combined-Shape" fill="#A0B1EE" transform="translate(15.539686, 28.205702) rotate(47.000000) translate(-15.539686, -28.205702) "></path>
                        <path d="M4.0245588,50.7123838 L1.0205672,47.7152497 L0.860771831,47.5558191 L0.541181086,47.8746803 L0.700976459,48.0341109 L3.70496805,51.031245 L0.922777773,53.8070842 L0.7629824,53.9665148 L1.08257315,54.2853759 L1.24236852,54.1259453 L4.0245588,51.3501062 L6.80674908,54.1259453 L6.96654445,54.2853759 L7.28613519,53.9665148 L7.12633982,53.8070842 L4.34414954,51.031245 L7.34814114,48.0341109 L7.50793651,47.8746803 L7.18834576,47.5558191 L7.02855039,47.7152497 L4.0245588,50.7123838 Z" id="Combined-Shape-Copy-3" fill="#A0B1EE"></path>
                    </g>
                </g>
            </g>
        </g>
    </g>
</svg>