<?xml version="1.0" encoding="UTF-8" standalone="no"?>
<svg width="79px" height="79px" viewBox="0 0 79 79" version="1.1" xmlns="http://www.w3.org/2000/svg" xmlns:xlink="http://www.w3.org/1999/xlink">
    <!-- Generator: Sketch 43 (38999) - http://www.bohemiancoding.com/sketch -->
    <title>customize icon</title>
    <desc>Created with Sketch.</desc>
    <defs></defs>
    <g id="Page-1" stroke="none" stroke-width="1" fill="none" fill-rule="evenodd">
        <g id="Desktop-HD" transform="translate(-744.000000, -2146.000000)" stroke-width="2">
            <g id="Offer" transform="translate(0.000000, 1728.000000)">
                <g id="04" transform="translate(746.000000, 407.000000)">
                    <g id="customize-icon" transform="translate(0.000000, 13.000000)">
                        <path d="M32.2110988,75 C30.937074,74.8212825 29.6834717,74.5786606 28.4536166,74.2754688 L28.1107662,69.5776639 C25.7395995,68.880581 23.4783541,67.9255685 21.3592863,66.7449753 L17.8125016,69.8167952 C16.7147469,69.1417394 15.6541319,68.4118611 14.6344456,67.63096 L16.1203345,63.1287939 C14.2899866,61.5879828 12.6276589,59.8529581 11.1648937,57.9553527 L6.733985,59.4261504 C5.96098638,58.333772 5.24442292,57.1984094 4.58855671,56.0243369 L7.69946221,52.411726 C6.69856296,50.3937624 5.89561144,48.259662 5.31609313,46.0349837 L0.674773997,45.694304 C0.372369545,44.3075386 0.145914183,42.8922829 -1.18795251e-12,41.453142 L4.2819031,39.2946816 C4.25339569,38.7285938 4.23896986,38.1587817 4.23896986,37.5855905 C4.23896986,36.0357812 4.34443244,34.5106748 4.54855296,33.0170956 L0.389387594,30.9205059 C0.661417945,29.3877857 1.02560429,27.8870434 1.4759958,26.4242471 L6.27499737,26.0719932 C6.93455241,24.2748567 7.74407187,22.550436 8.68833884,20.9139917 L5.64196729,17.3763224 C6.53016082,15.9720466 7.50819151,14.6305554 8.56795199,13.3599793 L13.1432477,14.8787049 C14.3041561,13.6279983 15.5597837,12.4669041 16.8986779,11.4069081 L15.4274609,6.94919702 C16.8454727,5.92094235 18.3377026,4.98927245 19.8945588,4.16380693 L23.5353098,7.31700981 C24.9360082,6.66703362 26.3894464,6.11196673 27.8874197,5.66003736 L28.2310677,0.951302545 C29.9836825,0.507790258 31.785159,0.18745025 33.6258079,-2.44804177e-14 L35.7782019,4.29447248 C36.3409783,4.26605496 36.9074448,4.25167515 37.4772603,4.25167515 C38.373574,4.25167515 39.2616014,4.28725506 40.1400149,4.35708339 L42.2697571,0.107806057 C44.1388257,0.345794811 45.965161,0.721129369 47.738388,1.22340481 L48.0859352,5.98556734 C49.4527897,6.4469124 50.7799105,6.99494893 52.0607985,7.62316173 L55.6719488,4.49559563 C57.3007088,5.39825984 58.855732,6.41835781 60.3256631,7.54450139 L58.8396644,12.047 C59.974893,13.0030659 61.0454518,14.0338571 62.0438111,15.1318223 L66.6008133,13.6191691 C67.7447194,15.0156002 68.7907197,16.4957596 69.7282907,18.0490937 L66.6587549,21.6136631 C67.4238439,23.0165943 68.0912716,24.4807461 68.6518694,25.9969233 L73.4554286,26.3495117 C73.9619117,27.9823846 74.3609146,29.6627509 74.6441381,31.3822876 L70.4669176,33.4879787 C70.6310461,34.8307923 70.7155507,36.1982945 70.7155507,37.5855905 C70.7155507,37.993391 70.7082487,38.3994811 70.6937689,38.8037365 L75,40.9744604 C74.8555145,42.6044625 74.6078079,44.2046947 74.2634802,45.7685381 L69.6189358,46.1094546 C69.1120658,48.036895 68.4373876,49.8960061 67.611521,51.6701205 L70.751514,55.31651 C70.0454447,56.6463984 69.2624235,57.9289558 68.4084087,59.1582069 L63.9907157,57.691796 C62.6859778,59.4195303 61.2171927,61.0157753 59.6076143,62.45721 L61.1099585,67.009235 C60.0273606,67.8848802 58.895444,68.7016606 57.7190443,69.4547267 L54.1949965,66.4025988 C52.2060622,67.5656037 50.085818,68.527441 47.8619925,69.2603024 L47.5153398,74.0102082 C46.2578996,74.3579636 44.9741037,74.6419853 43.6676242,74.8585909 L41.5680717,70.6695481 C40.2275195,70.834549 38.8622828,70.9195059 37.4772603,70.9195059 C36.4158713,70.9195059 35.3661019,70.8696135 34.3301567,70.7720398 L32.2110988,75 Z M37.8942449,63.8217805 C52.1122312,63.8217805 63.6381865,52.2626656 63.6381865,38.0037748 C63.6381865,23.7448839 52.1122312,12.185769 37.8942449,12.185769 C23.6762585,12.185769 12.1503032,23.7448839 12.1503032,38.0037748 C12.1503032,52.2626656 23.6762585,63.8217805 37.8942449,63.8217805 Z" id="Combined-Shape" stroke="#606160" fill="#F1A1A1"></path>
                        <circle id="Oval-14" stroke="#606160" cx="38.5" cy="37.5" r="17.5"></circle>
                        <polyline id="Path-6" stroke="#787978" points="28 39.8920821 33.8989083 45.7909904 49.6898987 30"></polyline>
                    </g>
                </g>
            </g>
        </g>
    </g>
</svg>