<?xml version="1.0" encoding="UTF-8" standalone="no"?>
<svg width="90px" height="64px" viewBox="0 0 90 64" version="1.1" xmlns="http://www.w3.org/2000/svg" xmlns:xlink="http://www.w3.org/1999/xlink">
    <!-- Generator: Sketch 43 (38999) - http://www.bohemiancoding.com/sketch -->
    <title>fully automated icon</title>
    <desc>Created with Sketch.</desc>
    <defs>
        <path d="M0,51 C0,44.372583 5.37705986,39 11.9978244,39 L78.0021756,39 C84.628391,39 90,44.3711258 90,51 C90,57.627417 84.6229401,63 78.0021756,63 L11.9978244,63 C5.37160896,63 0,57.6288742 0,51 Z M13.5,57 C16.5375661,57 19,54.5375661 19,51.5 C19,48.4624339 16.5375661,46 13.5,46 C10.4624339,46 8,48.4624339 8,51.5 C8,54.5375661 10.4624339,57 13.5,57 Z M45.5,57 C48.5375661,57 51,54.5375661 51,51.5 C51,48.4624339 48.5375661,46 45.5,46 C42.4624339,46 40,48.4624339 40,51.5 C40,54.5375661 42.4624339,57 45.5,57 Z M76.5,57 C79.5375661,57 82,54.5375661 82,51.5 C82,48.4624339 79.5375661,46 76.5,46 C73.4624339,46 71,48.4624339 71,51.5 C71,54.5375661 73.4624339,57 76.5,57 Z" id="path-1"></path>
    </defs>
    <g id="Page-1" stroke="none" stroke-width="1" fill="none" fill-rule="evenodd">
        <g id="Desktop-HD" transform="translate(-740.000000, -2018.000000)">
            <g id="Offer" transform="translate(0.000000, 1728.000000)">
                <g id="03" transform="translate(740.000000, 284.000000)">
                    <g id="fully-automated-icon" transform="translate(0.000000, 7.000000)">
                        <polyline id="Path-5" stroke="#767776" stroke-width="2" points="52.5297246 0.938476562 52.5297246 12.6546756 47.0542597 16.4815869 50.9106907 21"></polyline>
                        <polyline id="Path-5-Copy" stroke="#767776" stroke-width="2" transform="translate(55.791992, 10.969238) scale(-1, 1) translate(-55.791992, -10.969238) " points="58.5297246 0.938476562 58.5297246 12.6546756 53.0542597 16.4815869 56.9106907 21"></polyline>
                        <g id="Combined-Shape">
                            <use fill="#F3ABAB" fill-rule="evenodd" xlink:href="#path-1"></use>
                            <path stroke="#767776" stroke-width="2" d="M1,51 C1,44.9267797 5.92743238,40 11.9978244,40 L78.0021756,40 C84.0765877,40 89,44.923892 89,51 C89,57.0732203 84.0725676,62 78.0021756,62 L11.9978244,62 C5.9234123,62 1,57.076108 1,51 Z M13.5,58 C17.0898509,58 20,55.0898509 20,51.5 C20,47.9101491 17.0898509,45 13.5,45 C9.91014913,45 7,47.9101491 7,51.5 C7,55.0898509 9.91014913,58 13.5,58 Z M45.5,58 C49.0898509,58 52,55.0898509 52,51.5 C52,47.9101491 49.0898509,45 45.5,45 C41.9101491,45 39,47.9101491 39,51.5 C39,55.0898509 41.9101491,58 45.5,58 Z M76.5,58 C80.0898509,58 83,55.0898509 83,51.5 C83,47.9101491 80.0898509,45 76.5,45 C72.9101491,45 70,47.9101491 70,51.5 C70,55.0898509 72.9101491,58 76.5,58 Z"></path>
                        </g>
                        <rect id="Rectangle-12-Copy" stroke="#767776" stroke-width="2" x="20" y="24" width="16" height="13" rx="4"></rect>
                        <polyline id="Path-4" stroke="#767776" stroke-width="2" points="10.0234375 37.694729 10.0234375 0.953535934 51.9492188 0.953535934 80.922963 0.953535934 80.922963 37.9535359"></polyline>
                        <rect id="Rectangle-12-Copy-2" stroke="#767776" stroke-width="2" x="44" y="28" width="16" height="9" rx="4"></rect>
                    </g>
                </g>
            </g>
        </g>
    </g>
</svg>