<?xml version="1.0" encoding="UTF-8" standalone="no"?>
<svg width="69px" height="71px" viewBox="0 0 69 71" version="1.1" xmlns="http://www.w3.org/2000/svg" xmlns:xlink="http://www.w3.org/1999/xlink">
    <!-- Generator: Sketch 43 (38999) - http://www.bohemiancoding.com/sketch -->
    <title>Icon</title>
    <desc>Created with Sketch.</desc>
    <defs></defs>
    <g id="Page-1" stroke="none" stroke-width="1" fill="none" fill-rule="evenodd" stroke-linecap="round" stroke-linejoin="round">
        <g id="Desktop-HD" transform="translate(-120.000000, -2017.000000)" stroke="#606160" stroke-width="2">
            <g id="Offer" transform="translate(0.000000, 1728.000000)">
                <g id="01" transform="translate(121.000000, 284.000000)">
                    <g id="Icon" transform="translate(-0.000000, 6.000000)">
                        <path d="M45.3657359,68.572871 C45.5774868,67.4651634 45.6896802,66.3083848 45.6896802,65.1184997 C45.6896802,57.0212362 40.4941009,50.4571071 34.0850291,50.4571071 C27.6759572,50.4571071 22.4803779,57.0212362 22.4803779,65.1184997 C22.4803779,66.2731796 22.5860306,67.3966831 22.7857888,68.4744212 C14.2629859,66.9211447 7.69767442,63.5397071 7.69767442,58.3301086 C7.69767442,43.4846346 19.6322467,31.45 34.3542878,31.45 C49.0763288,31.45 61.0109012,43.4846346 61.0109012,58.3301086 C61.0109012,63.6526542 54.1578244,67.0669083 45.3657359,68.572871 Z M33.0079942,49.9131049 C36.5769738,49.9131049 39.4702035,46.9956178 39.4702035,43.396715 C39.4702035,39.7978121 36.5769738,36.880325 33.0079942,36.880325 C29.4390145,36.880325 26.5457849,39.7978121 26.5457849,43.396715 C26.5457849,46.9956178 29.4390145,49.9131049 33.0079942,49.9131049 Z" id="Combined-Shape" fill="#F3ABAB"></path>
                        <ellipse id="Oval-10" cx="8.2318314" cy="25.9176175" rx="7.55428061" ry="7.61761746"></ellipse>
                        <ellipse id="Oval-10-Copy-4" cx="59.3713663" cy="25.9176175" rx="7.55428061" ry="7.61761746"></ellipse>
                        <ellipse id="Oval-10-Copy-3" fill="#F4B4B4" cx="34.2550872" cy="10.3176175" rx="10.2318314" ry="10.3176175"></ellipse>
                        <path d="M54.4069767,35.275 L48.9651163,31.875" id="Line-Copy-9" transform="translate(51.686047, 33.575000) scale(-1, 1) translate(-51.686047, -33.575000) "></path>
                        <path d="M19.0348837,36.125 L12.6860465,31.875" id="Line-Copy-10"></path>
                        <path d="M34,21.675 L34,31.025" id="Line"></path>
                    </g>
                </g>
            </g>
        </g>
    </g>
</svg>