<?xml version="1.0" encoding="UTF-8" standalone="no"?>
<svg width="411px" height="437px" viewBox="0 0 411 437" version="1.1" xmlns="http://www.w3.org/2000/svg" xmlns:xlink="http://www.w3.org/1999/xlink">
    <!-- Generator: Sketch 43 (38999) - http://www.bohemiancoding.com/sketch -->
    <title>Gfx</title>
    <desc>Created with Sketch.</desc>
    <defs>
        <polygon id="path-1" points="91.9960938 300 285 300 258.996094 431.253677 119.996094 431.253677"></polygon>
        <rect id="path-2" x="79" y="279" width="216" height="42"></rect>
    </defs>
    <g id="Page-1" stroke="none" stroke-width="1" fill="none" fill-rule="evenodd">
        <g id="Desktop-HD" transform="translate(-905.000000, -288.000000)">
            <g id="Main" transform="translate(-25.000000, -330.000000)">
                <g id="Gfx" transform="translate(931.000000, 619.000000)">
                    <path d="M79.5,384 C62.1030304,384 48,369.89697 48,352.5 C48,335.10303 62.1030304,321 79.5,321 C96.8969696,321 111,335.10303 111,352.5 C111,369.89697 96.8969696,384 79.5,384 Z M200,264 C185.640597,264 174,252.359403 174,238 C174,223.640597 185.640597,212 200,212 C214.359403,212 226,223.640597 226,238 C226,252.359403 214.359403,264 200,264 Z M322.5,264 C315.596441,264 310,258.403559 310,251.5 C310,244.596441 315.596441,239 322.5,239 C329.403559,239 335,244.596441 335,251.5 C335,258.403559 329.403559,264 322.5,264 Z M373.5,88 C368.253295,88 364,83.7467051 364,78.5 C364,73.2532949 368.253295,69 373.5,69 C378.746705,69 383,73.2532949 383,78.5 C383,83.7467051 378.746705,88 373.5,88 Z M133.5,188 C128.253295,188 124,183.746705 124,178.5 C124,173.253295 128.253295,169 133.5,169 C138.746705,169 143,173.253295 143,178.5 C143,183.746705 138.746705,188 133.5,188 Z M23.5,97 C18.2532949,97 14,92.7467051 14,87.5 C14,82.2532949 18.2532949,78 23.5,78 C28.7467051,78 33,82.2532949 33,87.5 C33,92.7467051 28.7467051,97 23.5,97 Z M389,197 C380.163444,197 373,189.836556 373,181 C373,172.163444 380.163444,165 389,165 C397.836556,165 405,172.163444 405,181 C405,189.836556 397.836556,197 389,197 Z" id="Combined-Shape" fill-opacity="0.409999996" fill="#EFE597"></path>
                    <polyline id="Path-2" stroke="#555655" stroke-width="2" stroke-linecap="round" stroke-linejoin="round" stroke-dasharray="1,1,1,6" points="205.996094 284 205.996094 203.353513 366 203.353513 366 144"></polyline>
                    <polyline id="Path-2-Copy" stroke="#555655" stroke-width="2" stroke-linecap="round" stroke-linejoin="round" stroke-dasharray="1,1,1,6" points="225.996094 284 225.996094 230.788049 257 230.788049 285 230.788049 285 196 285 139.5"></polyline>
                    <polyline id="Path-2-Copy-2" stroke="#555655" stroke-width="2" stroke-linecap="round" stroke-linejoin="round" stroke-dasharray="1,1,1,6" points="216.996094 284 216.996094 109.417341 250 109.417341 250 28"></polyline>
                    <polyline id="Path-2-Copy-2" stroke="#555655" stroke-width="2" stroke-linecap="round" stroke-linejoin="round" stroke-dasharray="1,1,1,6" points="291 187.417341 324.003906 187.417341 324.003906 106"></polyline>
                    <polyline id="Path-2-Copy-5" stroke="#555655" stroke-width="2" stroke-linecap="round" stroke-linejoin="round" stroke-dasharray="1,1,1,6" transform="translate(145.498047, 180.250000) scale(-1, 1) translate(-145.498047, -180.250000) " points="115.996094 284 115.996094 230.788049 175 230.788049 175 76.5"></polyline>
                    <polyline id="Path-2-Copy-6" stroke="#555655" stroke-width="2" stroke-linecap="round" stroke-linejoin="round" stroke-dasharray="1,1,1,6" transform="translate(110.498047, 244.750000) scale(-1, 1) translate(-110.498047, -244.750000) " points="55.9960938 284 55.9960938 246.788049 165 246.788049 165 205.5"></polyline>
                    <polyline id="Path-2-Copy-7" stroke="#555655" stroke-width="2" stroke-linecap="round" stroke-linejoin="round" stroke-dasharray="1,1,1,6" transform="translate(89.498047, 214.750000) scale(-1, 1) translate(-89.498047, -214.750000) " points="34.9960938 284 34.9960938 236.788049 144 236.788049 144 145.5"></polyline>
                    <polyline id="Path-2-Copy-4" stroke="#555655" stroke-width="2" stroke-linecap="round" stroke-linejoin="round" stroke-dasharray="1,1,1,6" transform="translate(174.498047, 201.500000) scale(-1, 1) translate(-174.498047, -201.500000) " points="157.996094 284 157.996094 160.417341 191 160.417341 191 119"></polyline>
                    <polyline id="Path-2-Copy-3" stroke="#555655" stroke-width="2" stroke-linecap="round" stroke-linejoin="round" stroke-dasharray="1,1,1,6" transform="translate(99.501953, 170.708671) scale(-1, 1) translate(-99.501953, -170.708671) " points="83 211.417341 116.003906 211.417341 116.003906 130"></polyline>
                    <rect id="Rectangle-4" fill-opacity="0.0899999887" fill="#000000" x="98" y="427" width="182" height="9" rx="4.5"></rect>
                    <g id="Rectangle-3-Copy">
                        <use fill="#BDA488" fill-rule="evenodd" xlink:href="#path-1"></use>
                        <path stroke="#4B4C4B" stroke-width="2" d="M93.2319222,301 L283.782444,301 L258.174776,430.253677 L120.805268,430.253677 L93.2319222,301 Z"></path>
                    </g>
                    <g id="Rectangle-3">
                        <use fill="#BDA488" fill-rule="evenodd" xlink:href="#path-2"></use>
                        <rect stroke="#4B4C4B" stroke-width="2" x="80" y="280" width="214" height="40"></rect>
                    </g>
                    <circle id="Oval-2" stroke="#555655" stroke-width="2" fill="#EDE18C" cx="366" cy="131" r="17"></circle>
                    <circle id="Oval-2-Copy-16" stroke="#555655" stroke-width="2" fill="#E7D976" cx="34" cy="122" r="17"></circle>
                    <circle id="Oval-2" stroke="#555655" stroke-width="2" fill="#FFFFFF" cx="286.5" cy="122.5" r="11.5"></circle>
                    <circle id="Oval-2-Copy-12" stroke="#555655" stroke-width="2" fill="#FFFFFF" cx="115.5" cy="57.5" r="11.5"></circle>
                    <circle id="Oval-2-Copy-13" stroke="#555655" stroke-width="2" fill="#FFFFFF" cx="157.5" cy="107.5" r="11.5"></circle>
                    <circle id="Oval-2-Copy-14" stroke="#555655" stroke-width="2" fill="#FFFFFF" cx="82.5" cy="111.5" r="11.5"></circle>
                    <circle id="Oval-2-Copy-15" stroke="#555655" stroke-width="2" fill="#FFFFFF" cx="55.5" cy="186.5" r="11.5"></circle>
                    <circle id="Oval-2-Copy-3" stroke="#C4AD93" stroke-width="2" cx="243" cy="173" r="8"></circle>
                    <circle id="Oval-2-Copy-4" stroke="#C4AD93" stroke-width="2" cx="395" cy="147" r="5"></circle>
                    <circle id="Oval-2-Copy-17" stroke="#C4AD93" stroke-width="2" cx="5" cy="107" r="5"></circle>
                    <circle id="Oval-2-Copy-10" stroke="#C4AD93" stroke-width="2" cx="347.5" cy="152.5" r="2.5"></circle>
                    <circle id="Oval-2-Copy-9" stroke="#C4AD93" stroke-width="2" cx="341.5" cy="72.5" r="2.5"></circle>
                    <circle id="Oval-2-Copy-20" stroke="#C4AD93" stroke-width="2" cx="171.5" cy="145.5" r="2.5"></circle>
                    <circle id="Oval-2-Copy-21" stroke="#C4AD93" stroke-width="2" cx="73.5" cy="87.5" r="2.5"></circle>
                    <circle id="Oval-2-Copy" stroke="#555655" stroke-width="2" fill="#EADD81" cx="251.5" cy="11.5" r="11.5"></circle>
                    <circle id="Oval-2-Copy-2" stroke="#555655" stroke-width="2" fill="#FFFFFF" cx="323.5" cy="88.5" r="11.5"></circle>
                    <path d="M405,123.519214 L401.827148,120.287455 C401.45086,119.904182 400.840777,119.904182 400.464489,120.287455 L400.464489,121.675413 L403.637341,124.907171 L400.282216,128.324587 C399.905928,128.707861 399.905928,129.329271 400.282216,129.712545 C400.658504,130.095818 401.268587,130.095818 401.644875,129.712545 L405,126.295129 L408.355125,129.712545 C408.731413,130.095818 409.341496,130.095818 409.717784,129.712545 C410.094072,129.329271 410.094072,128.707861 409.717784,128.324587 L406.362659,124.907171 L409.535511,121.675413 L409.535511,120.287455 C409.159223,119.904182 408.54914,119.904182 408.172852,120.287455 L405,123.519214 Z" id="Combined-Shape" fill="#C4AD93"></path>
                    <path d="M135.5,205.759607 L133.913574,204.143728 C133.72543,203.952091 133.420389,203.952091 133.232245,204.143728 L133.232245,204.837707 L134.818671,206.453586 L133.141108,208.162293 C132.952964,208.35393 132.952964,208.664635 133.141108,208.856272 C133.329252,209.047909 133.634293,209.047909 133.822437,208.856272 L135.5,207.147564 L137.177563,208.856272 C137.365707,209.047909 137.670748,209.047909 137.858892,208.856272 C138.047036,208.664635 138.047036,208.35393 137.858892,208.162293 L136.181329,206.453586 L137.767755,204.837707 L137.767755,204.143728 C137.579611,203.952091 137.27457,203.952091 137.086426,204.143728 L135.5,205.759607 Z" id="Combined-Shape-Copy-2" fill="#C4AD93"></path>
                    <path d="M51,152.519214 L47.8271482,149.287455 C47.4508604,148.904182 46.8407773,148.904182 46.4644894,149.287455 L46.4644894,150.675413 L49.6373412,153.907171 L46.2822159,157.324587 C45.905928,157.707861 45.905928,158.329271 46.2822159,158.712545 C46.6585037,159.095818 47.2685869,159.095818 47.6448747,158.712545 L51,155.295129 L54.3551253,158.712545 C54.7314131,159.095818 55.3414963,159.095818 55.7177841,158.712545 C56.094072,158.329271 56.094072,157.707861 55.7177841,157.324587 L52.3626588,153.907171 L55.5355106,150.675413 L55.5355106,149.287455 C55.1592227,148.904182 54.5491396,148.904182 54.1728518,149.287455 L51,152.519214 Z" id="Combined-Shape-Copy" fill="#C4AD93"></path>
                </g>
            </g>
        </g>
    </g>
</svg>