<?xml version="1.0" encoding="UTF-8" standalone="no"?>
<svg width="160px" height="30px" viewBox="0 0 160 30" version="1.1" xmlns="http://www.w3.org/2000/svg" xmlns:xlink="http://www.w3.org/1999/xlink">
    <!-- Generator: Sketch 43 (38999) - http://www.bohemiancoding.com/sketch -->
    <title>Logo</title>
    <desc>Created with Sketch.</desc>
    <defs>
        <linearGradient x1="0%" y1="0%" x2="101.999998%" y2="100.999999%" id="linearGradient-1">
            <stop stop-color="#3023AE" offset="0%"></stop>
            <stop stop-color="#C96DD8" offset="100%"></stop>
        </linearGradient>
    </defs>
    <g id="Page-1" stroke="none" stroke-width="1" fill="none" fill-rule="evenodd">
        <g id="Desktop-HD" transform="translate(-121.000000, -29.000000)" fill="url(#linearGradient-1)">
            <g id="Main" transform="translate(-25.000000, -330.000000)">
                <g id="Main-Nav" transform="translate(25.000000, 327.000000)">
                    <g id="Logo" transform="translate(121.000000, 32.000000)">
                        <path d="M13.708293,15.7889644 C13.708293,14.046572 13.3464169,12.80011 12.6226539,12.049541 C11.8988909,11.2989719 10.8467698,10.923693 9.46625886,10.923693 C8.08574794,10.923693 6.97331409,11.1984508 6.12892392,11.7479746 C5.28453375,12.2974983 4.862345,13.1619801 4.862345,14.3414457 L1.36417465,14.3414457 C1.36417465,11.3927816 2.94570712,9.56999842 6.1088195,8.87304146 C7.07383683,8.65859316 8.1192566,8.55137062 9.24511016,8.55137062 C11.6308475,8.55137062 13.4938391,9.15449741 14.8341409,10.3607691 C16.1744428,11.5670407 16.8445837,13.4032267 16.8445837,15.8693822 L16.8445837,28.2537094 L14.1103816,28.2537094 L13.7887107,25.037001 C12.6092451,27.4763504 10.4781971,28.6960068 7.39550284,28.6960068 C5.33143799,28.6960068 3.67619002,28.1196856 2.4297093,26.967026 C1.18322857,25.8143664 0.559997559,24.380265 0.559997559,22.6646786 C0.559997559,20.9490922 1.25024266,19.6088105 2.63075357,18.6437931 C4.01126448,17.6787758 5.73352653,17.1962744 7.79759139,17.1962744 C9.86165625,17.1962744 11.8318704,17.5447476 13.708293,18.2417046 L13.708293,15.7889644 Z M13.708293,20.2521473 C11.8050644,19.7160266 10.143115,19.4479702 8.72239505,19.4479702 C7.30167508,19.4479702 6.14903277,19.7026238 5.26443355,20.2119385 C4.37983432,20.7212532 3.93754135,21.5254222 3.93754135,22.6244697 C3.93754135,25.0370131 5.30462873,26.2432666 8.03884452,26.2432666 C9.59359467,26.2432666 10.927175,25.6870497 12.0396256,24.5745992 C13.1520761,23.4621486 13.708293,22.0213458 13.708293,20.2521473 Z M35.1295604,24.4338682 C33.8160646,27.2216961 31.6850166,28.6155891 28.7363525,28.6155891 C26.5650635,28.6155891 24.8159958,28.0124623 23.489097,26.8061906 C22.1621981,25.5999189 21.4987587,23.7369273 21.4987587,21.2171598 L21.4987587,8.99366802 L24.6752582,8.99366802 L24.6752582,20.9759067 C24.6752582,24.2194372 26.1763737,25.8411781 29.1786499,25.8411781 C30.9210423,25.8411781 32.3350395,25.1710372 33.4206841,23.8307354 C34.5063286,22.4904335 35.0759483,20.7748729 35.1295604,18.684002 L35.1295604,8.99366802 L38.3060599,8.99366802 L38.3060599,28.2537094 L35.1295604,28.2537094 L35.1295604,24.4338682 Z M54.2187142,27.6907854 C51.913395,28.7630269 49.8091526,28.9908748 47.905924,28.3743359 C46.5388161,27.9454393 45.5738132,27.0474506 45.0108865,25.6803427 C44.71602,25.0101918 44.5685891,24.2060227 44.5685891,23.2678114 L44.5685891,11.4464082 L41.4725072,11.4464082 L41.4725072,9.03387687 L44.5685891,9.03387687 L44.5685891,3.68609921 L47.7048797,3.68609921 L47.7048797,9.03387687 L53.7362079,9.03387687 L53.7362079,11.4464082 L47.7048797,11.4464082 L47.7048797,23.2276026 C47.7048797,25.1844433 48.6162713,26.1628489 50.4390818,26.1628489 C51.4309052,26.1628489 52.5433391,25.9215982 53.7764168,25.4390896 L54.2187142,27.6907854 Z M63.9392048,8.55137062 C66.6198085,8.55137062 68.7843636,9.42255376 70.4329348,11.1649462 C72.0815061,12.9073386 72.9057794,15.4002626 72.9057794,18.6437931 C72.9057794,21.8605176 72.0815061,24.3400388 70.4329348,26.0824312 C68.7843636,27.8248236 66.6198085,28.6960068 63.9392048,28.6960068 C61.2586011,28.6960068 59.0940461,27.8248236 57.4454748,26.0824312 C55.7969035,24.3400388 54.9726302,21.8605176 54.9726302,18.6437931 C54.9726302,15.4002626 55.7969035,12.9073386 57.4454748,11.1649462 C59.0940461,9.42255376 61.2586011,8.55137062 63.9392048,8.55137062 Z M68.2415523,13.2357022 C67.2765349,11.9356094 65.8625377,11.2855727 63.9995181,11.2855727 C62.1364985,11.2855727 60.7090985,11.9356094 59.7172751,13.2357022 C58.7254517,14.535795 58.2295475,16.3317725 58.2295475,18.6236887 C58.2295475,20.9156049 58.6986461,22.7115824 59.6368574,24.0116752 C60.5750687,25.311768 61.9756631,25.9618047 63.8386827,25.9618047 C65.7017023,25.9618047 67.1425051,25.311768 68.1611346,24.0116752 C69.179764,22.7115824 69.689071,20.9156049 69.689071,18.6236887 C69.689071,16.3317725 69.2065696,14.535795 68.2415523,13.2357022 Z M76.7155684,0.871479388 L79.892068,0.871479388 L79.892068,28.2537094 L76.7155684,28.2537094 L76.7155684,0.871479388 Z M85.913344,8.99366802 L89.0898435,8.99366802 L89.0898435,28.2537094 L85.913344,28.2537094 L85.913344,8.99366802 Z M85.9736573,3.94745677 C85.6117758,3.58557526 85.4308377,3.10307383 85.4308377,2.499938 C85.4308377,1.89680216 85.6117758,1.41430073 85.9736573,1.05241923 C86.3355388,0.690537733 86.8381444,0.509599696 87.4814893,0.509599696 C88.1248342,0.509599696 88.6408427,0.690537733 89.0295302,1.05241923 C89.4182178,1.41430073 89.6125586,1.89680216 89.6125586,2.499938 C89.6125586,3.10307383 89.4182178,3.58557526 89.0295302,3.94745677 C88.6408427,4.30933827 88.1248342,4.4902763 87.4814893,4.4902763 C86.8381444,4.4902763 86.3355388,4.30933827 85.9736573,3.94745677 Z M101.222865,18.0808692 L98.6494987,20.1717296 L98.6494987,28.2537094 L95.4729992,28.2537094 L95.4729992,0.871479388 L98.6494987,0.871479388 L98.6494987,16.7941858 L107.937744,9.03387687 L112.360718,9.03387687 L103.51477,16.2312619 L112.803016,28.2537094 L108.902757,28.2537094 L101.222865,18.0808692 Z M133.075817,24.2554414 C133.385762,25.3712427 133.866169,26.1848356 134.517053,26.6962445 C135.167937,27.2076535 136.082261,27.292887 137.260051,26.9519477 C138.251874,26.7349863 139.313419,26.1770941 140.444718,25.2782541 C141.576017,24.3794142 142.932005,22.9846835 144.512723,21.0940202 L144.698689,22.4887648 C143.210954,24.627384 141.792978,26.2235758 140.444718,27.2773881 C139.096458,28.3312005 137.678482,28.8580987 136.190747,28.8580987 C134.888979,28.8580987 133.788691,28.354446 132.889851,27.3471254 C131.991011,26.3398047 131.371131,24.8908345 131.030192,23.0001712 C130.844225,21.9773534 130.898464,20.9390538 131.192912,19.8852415 C131.487359,18.8314292 131.95227,17.8318722 132.587656,16.8865405 C133.223043,15.9412089 133.982397,15.0733764 134.865739,14.2830172 C135.749082,13.4926579 136.702148,12.8495321 137.724966,12.3536204 C139.119718,11.6717419 140.343981,11.4547838 141.397793,11.7027396 C142.451606,11.9506954 143.055989,12.5705758 143.210962,13.5623991 C143.365934,14.523228 143.164473,15.4685455 142.606572,16.3983799 C142.048672,17.3282143 141.07236,18.2735318 139.677608,19.2343607 C139.336669,19.4823165 138.879507,19.7612627 138.30611,20.0712075 C137.732712,20.3811523 137.12058,20.6910924 136.469696,21.0010372 C135.818812,21.310982 135.160189,21.6131737 134.493807,21.9076212 C133.827426,22.2020688 133.246288,22.4577694 132.750377,22.6747308 L133.075817,24.2554414 Z M132.750377,21.0940202 C135.26093,19.9162299 137.167062,18.8779304 138.46883,17.9790905 C139.770598,17.0802506 140.591939,16.2434121 140.932879,15.4685501 C141.211829,14.9726385 141.35905,14.5542192 141.374548,14.21328 C141.390045,13.8723407 141.328057,13.61664 141.188582,13.4461704 C141.049107,13.2757008 140.839897,13.1827187 140.560947,13.1672215 C140.281996,13.1517242 139.987553,13.2059638 139.677608,13.3299417 C138.685785,13.7018754 137.77921,14.1667857 136.957856,14.7246863 C136.136503,15.282587 135.415892,15.8947188 134.796002,16.5611001 C134.176113,17.2274814 133.687957,17.9480923 133.33152,18.7229543 C132.975084,19.4978163 132.781371,20.2881637 132.750377,21.0940202 Z M144.698689,21.1870032 C146.372391,19.110373 147.867852,17.2584806 149.185118,15.6312703 C150.502383,14.0040601 151.470946,12.772048 152.090836,11.935197 C152.12183,11.0053626 152.238058,10.4164763 152.439522,10.1685205 C152.640986,9.92056465 153.005166,9.78109158 153.532072,9.7500971 C153.873011,9.7500971 154.229442,9.84307914 154.601376,10.029046 L154.833834,10.4474694 C154.771845,10.6954253 154.779593,11.0053654 154.857079,11.3772992 C154.934565,11.7492329 155.112781,12.2296402 155.391731,12.8185353 C155.732671,13.5624028 155.980623,14.1900317 156.135595,14.7014406 C156.290568,15.2128495 156.445538,15.8404783 156.60051,16.5843459 C156.693494,17.3282134 156.677997,18.0488242 156.554019,18.7462001 C156.430041,19.4435759 156.135598,20.1719352 155.67068,20.9313 C155.205763,21.6906648 154.523895,22.4965092 153.625055,23.3488574 C152.726215,24.2012056 151.532945,25.1232776 150.04521,26.1151009 C150.510127,26.2390788 151.006032,26.2855699 151.532938,26.2545754 C152.059844,26.2235809 152.679724,26.0298683 153.392597,25.6734318 C154.10547,25.3169953 154.926812,24.7746 155.856646,24.0462297 C156.786481,23.3178594 157.902265,22.3183024 159.204033,21.0475287 L159.389999,22.5817478 C158.491159,23.5735712 157.693064,24.4259066 156.995688,25.1387797 C156.298312,25.8516527 155.624192,26.440539 154.973308,26.9054562 C153.39259,27.9592686 151.99011,28.4396758 150.765828,28.3466924 C149.541546,28.2537089 148.294037,27.6493256 147.023264,26.5335243 C146.65133,26.192585 146.34139,25.8748964 146.093434,25.5804488 C145.845478,25.2860012 145.636268,24.9450671 145.465799,24.5576361 C145.295329,24.1702051 145.155856,23.7130433 145.047375,23.1861372 C144.938895,22.659231 144.822667,21.9928597 144.698689,21.1870032 Z M153.578563,12.8185353 C153.175635,13.3454415 152.679731,13.9808188 152.090836,14.7246863 C151.501941,15.4685539 150.851066,16.2589013 150.138193,17.0957522 L147.953093,19.6062926 C147.24022,20.4431436 146.542855,21.233491 145.860976,21.9773585 C146.294899,22.4112812 146.759809,22.914934 147.255721,23.4883318 C147.751633,24.0617297 148.216543,24.6583645 148.650466,25.2782541 C148.898421,25.1852707 149.21611,24.9915581 149.603541,24.6971105 C149.990972,24.402663 150.378397,24.0849743 150.765828,23.744035 C151.153259,23.4030957 151.509691,23.0699101 151.835133,22.744468 C152.160575,22.419026 152.385281,22.1633254 152.509259,21.9773585 C153.222132,21.0165296 153.764527,20.1874397 154.136461,19.4900639 C154.508395,18.7926881 154.733102,18.1185682 154.810588,17.4676841 C154.888074,16.8168 154.818337,16.1349317 154.601376,15.4220587 C154.384415,14.7091856 154.043481,13.8413532 153.578563,12.8185353 Z M122.141522,29.5102361 C120.05964,29.5102361 118.371942,27.8225376 118.371942,25.740656 C118.371942,23.6587744 120.05964,21.9710758 122.141522,21.9710758 C124.223403,21.9710758 125.911102,23.6587744 125.911102,25.740656 C125.911102,27.8225376 124.223403,29.5102361 122.141522,29.5102361 Z" id="Combined-Shape"></path>
                    </g>
                </g>
            </g>
        </g>
    </g>
</svg>